<svg xmlns="http://www.w3.org/2000/svg" width="258" height="76"><path fill-rule="evenodd" d="M254.066 32.41l-1.063-.686c-1.588-1.023-3.055-1.542-4.362-1.542-1.241 0-2.253.323-3.095.987-.842.664-1.533 1.953-2.054 3.832-.555 2-.837 6.341-.837 12.906v13.132H230.21V19.754h11.702v3.388c1.036-1.328 2.008-2.274 2.94-2.863 1.482-.938 3.182-1.413 5.052-1.413 2.55 0 5.036.707 7.388 2.101l.706.419-3.932 11.024zm-29.94 11.979h-26.083c.21 2.332.951 4.185 2.202 5.521 1.421 1.524 3.153 2.262 5.285 2.262 1.421 0 2.562-.369 3.503-1.117.94-.757 1.681-2.032 2.192-3.786l.24-.857 12.461 2.083-.391 1.116c-1.401 3.986-3.663 7.065-6.716 9.167-3.042 2.092-6.875 3.148-11.4 3.148-7.166 0-12.56-2.391-16.043-7.104-2.723-3.737-4.094-8.489-4.094-14.129 0-6.736 1.811-12.107 5.395-15.973 3.593-3.886 8.207-5.849 13.702-5.849 6.145 0 11.079 2.063 14.652 6.128 3.543 4.036 5.265 10.233 5.115 18.414l-.02.976zm-14.413-13.531c-1.301-1.375-2.842-2.043-4.704-2.043-2.002 0-3.603.708-4.904 2.153-1.131 1.255-1.772 2.959-1.912 5.071h13.532c-.2-2.242-.881-3.985-2.012-5.181zm-45.209 31.068c-2.332 0-4.474-.468-6.366-1.394-1.341-.648-2.732-1.635-4.153-2.93v18.275l-12.451-4.554V22.136l11.74-4.295v5.813a16.345 16.345 0 0 1 3.633-2.81c2.302-1.305 4.885-1.973 7.667-1.973 4.864 0 9.048 1.913 12.421 5.7 3.343 3.736 5.044 8.987 5.044 15.603 0 6.786-1.711 12.157-5.074 15.963-3.403 3.846-7.597 5.789-12.461 5.789zm2.652-30.211c-1.471-1.774-3.243-2.64-5.405-2.64-2.252 0-4.083.847-5.594 2.59-1.512 1.764-2.282 4.484-2.282 8.071 0 4.145.81 7.224 2.402 9.148 1.581 1.882 3.433 2.799 5.665 2.799 2.131 0 3.863-.827 5.284-2.541 1.451-1.733 2.182-4.722 2.182-8.888 0-3.866-.761-6.736-2.252-8.539zM114.33 61.926c-3.753 0-7.386-.856-10.789-2.54-3.463-1.714-6.126-4.265-7.927-7.583-1.782-3.278-2.683-7.294-2.683-11.957 0-3.597.901-7.135 2.673-10.492 1.801-3.389 4.384-6.019 7.676-7.813 3.263-1.773 6.956-2.67 10.98-2.67 6.215 0 11.4 2.043 15.393 6.088.361.369.711.748 1.041 1.136 3.293 3.846 4.965 8.609 4.965 14.189 0 6.188-2.042 11.399-6.066 15.485-4.023 4.085-9.158 6.157-15.263 6.157zm6.075-29.822c-1.661-1.864-3.663-2.771-6.105-2.771-2.452 0-4.464.907-6.135 2.781-1.682 1.873-2.533 4.663-2.533 8.29 0 3.627.851 6.407 2.533 8.29 1.671 1.863 3.683 2.77 6.135 2.77 2.442 0 4.444-.907 6.105-2.77 1.672-1.873 2.513-4.693 2.513-8.37 0-3.577-.841-6.337-2.513-8.22zM67.839 61.926c-3.753 0-7.386-.856-10.799-2.54-3.453-1.714-6.115-4.265-7.917-7.583-1.781-3.278-2.682-7.294-2.682-11.957 0-3.597.901-7.135 2.672-10.492 1.802-3.389 4.384-6.019 7.677-7.813 3.263-1.773 6.956-2.67 10.979-2.67 6.216 0 11.4 2.043 15.394 6.088 3.983 4.036 6.005 9.187 6.005 15.325 0 6.188-2.042 11.399-6.065 15.485-4.024 4.085-9.168 6.157-15.264 6.157zm6.076-29.822c-1.662-1.864-3.663-2.771-6.116-2.771-2.442 0-4.453.907-6.125 2.781-1.681 1.873-2.532 4.663-2.532 8.29 0 3.627.851 6.407 2.532 8.29 1.672 1.863 3.683 2.77 6.125 2.77 2.453 0 4.454-.907 6.116-2.77 1.661-1.873 2.512-4.693 2.512-8.37 0-3.577-.851-6.337-2.512-8.22zM26.553 42.403H13.001V71.23L0 75.993V-.014l13.001 4.763v26.484h13.552V9.711l13.001 4.752v47.042l-13.001 4.763V42.403z"/></svg>